<svg width="200" height="200" viewBox="0 0 200 200" fill="none" xmlns="http://www.w3.org/2000/svg">
<path d="M84.0458 74.254C82.6986 74.4292 81.3644 74.5751 80.0434 74.6915C78.9512 74.7689 77.7872 74.8496 76.5512 74.9334C75.374 75.0434 74.3963 75.1013 73.6182 75.1071C70.7743 81.1728 68.5301 85.8135 66.8856 89.0292C65.3 92.2712 64.137 94.6438 63.3966 96.1471C62.4663 97.9183 61.8899 98.8954 61.6674 99.0783C61.5498 99.0259 61.3017 98.6333 60.9231 97.9005C60.5707 97.1089 60.1989 96.2029 59.8075 95.1824C59.475 94.1881 59.1718 93.2069 58.8981 92.2388C58.6832 91.297 58.5956 90.6233 58.6352 90.2179C58.9172 89.427 59.7531 87.1554 61.1431 83.4032C61.7332 81.7624 62.4937 79.7392 63.4246 77.3337C64.3555 74.9282 65.4798 72.0095 66.7975 68.5776C68.1152 65.1458 69.6656 61.1126 71.4488 56.478C73.2907 51.8696 75.4047 46.5715 77.7908 40.5839C76.7581 40.0532 75.8888 39.6306 75.1829 39.316C74.5358 39.0277 74.0226 38.8343 73.6434 38.7358C73.2905 38.5785 73.0257 38.4606 72.8493 38.3819C72.699 38.2445 72.6175 38.0319 72.6047 37.7441C72.5791 37.1686 72.7565 36.2958 73.1369 35.1257C73.5435 33.8967 73.9827 32.7527 74.4546 31.6938C74.9788 30.5173 75.6502 29.4062 76.4686 28.3608C77.3458 27.3415 78.0853 26.7896 78.687 26.7052C78.9159 26.6662 79.3702 26.8334 80.05 27.2068C80.7885 27.6064 81.6185 28.1172 82.5399 28.7394C83.4614 29.3615 84.4579 30.0523 85.5296 30.8119C86.6013 31.5715 87.6142 32.3049 88.5683 33.012C89.5223 33.7192 90.3293 34.3608 90.9892 34.9369C91.7341 35.4804 92.27 35.8602 92.5968 36.0763C93.1326 36.4561 94.0636 37.294 95.3899 38.5901C96.7423 39.8273 98.1174 41.2509 99.5153 42.8609C100.998 44.4383 102.324 46.0515 103.493 47.7005C104.747 49.3169 105.56 50.7367 105.931 51.9599C106.068 52.4439 105.887 53.562 105.389 55.314C104.949 57.0923 104.355 58.9783 103.608 60.972C102.945 62.9332 102.192 64.783 101.346 66.5217C100.586 68.2277 99.941 69.2799 99.4109 69.6783C99.0183 69.9264 98.3281 70.2886 97.3402 70.765C96.3523 71.2415 95.1486 71.7275 93.7291 72.2231C92.3947 72.6861 90.9001 73.113 89.2452 73.5037C87.5904 73.8945 85.8573 74.1446 84.0458 74.254ZM76.7533 68.7834C77.4138 68.7252 78.3099 68.4547 79.4417 67.9719C80.6585 67.4564 81.944 66.8659 83.2983 66.2002C84.6788 65.4757 86.0724 64.7217 87.4791 63.9384C88.912 63.0962 90.2173 62.3029 91.3951 61.5586C92.6317 60.8405 93.6263 60.1908 94.3789 59.6095C95.2165 58.9956 95.6877 58.571 95.7926 58.3357C95.9499 57.9827 95.8818 57.4236 95.5882 56.6582C95.3209 55.834 94.8183 54.9049 94.0803 53.871C93.4012 52.8633 92.4737 51.7802 91.2978 50.6216C90.2069 49.4304 88.9296 48.2619 87.4659 47.1161L76.7533 68.7834Z" fill="#2D3339"/>
<path d="M126.981 37.4773C128.271 41.6435 129.669 46.5488 131.176 52.1931C132.477 57.0033 133.987 62.873 135.708 69.8022C137.428 76.7313 139.262 84.6893 141.209 93.676C141.219 94.32 140.876 95.0661 140.181 95.9146C139.487 96.8274 138.664 97.6779 137.71 98.466C136.692 99.2551 135.64 99.9482 134.555 100.545C133.469 101.142 132.54 101.447 131.767 101.459C131.308 100.951 130.662 98.7714 129.827 94.9199C129.479 93.2508 129.059 91.164 128.568 88.6598C128.013 86.1565 127.416 83.042 126.777 79.3163C126.139 75.655 125.426 71.3507 124.639 66.4035C123.852 61.4562 122.955 55.7056 121.949 49.1516C121.376 53.6051 120.799 57.8011 120.217 61.7395C119.637 65.7423 119.114 69.2933 118.648 72.3925C118.06 75.9446 117.533 79.238 117.066 82.2728C116.838 84.1444 116.579 86.1131 116.29 88.1789C115.938 90.3101 115.582 92.2481 115.223 93.9929C114.865 95.7378 114.501 97.1928 114.133 98.3581C113.701 99.5244 113.227 100.112 112.712 100.12C112.262 100.191 111.521 100.139 110.487 99.962C109.39 99.7863 108.322 99.5134 107.286 99.1434C106.25 98.8378 105.343 98.4658 104.563 98.0273C103.718 97.5899 103.293 97.1458 103.286 96.695C103.281 96.4374 103.52 95.2098 104 93.0122C104.416 90.8155 105.047 88.0035 105.895 84.5762C106.678 81.2143 107.584 77.3995 108.611 73.132C109.574 68.8655 110.631 64.5008 111.784 60.038C112.874 55.6406 113.965 51.3398 115.057 47.1357C116.15 42.9315 117.153 39.1796 118.066 35.88C118.981 32.6449 119.777 30.0235 120.453 28.0159C121.066 26.0094 121.5 25.0041 121.758 25C122.016 24.9959 122.71 26.1121 123.84 28.3485C124.972 30.6493 126.019 33.6923 126.981 37.4773Z" fill="#2D3339"/>
<line x1="35.4172" y1="116.959" x2="164.417" y2="116.959" stroke="#2D3339"/>
<path d="M25.5372 148.659C26.6439 148.659 27.6172 148.512 28.4572 148.219C29.3106 147.926 30.0239 147.519 30.5972 146.999C31.1839 146.466 31.6239 145.832 31.9172 145.099C32.2106 144.366 32.3572 143.559 32.3572 142.679C32.3572 140.852 31.7906 139.426 30.6572 138.399C29.5372 137.372 27.8306 136.859 25.5372 136.859H20.9372V148.659H25.5372ZM25.5372 133.799C27.3506 133.799 28.9239 134.012 30.2572 134.439C31.6039 134.852 32.7172 135.446 33.5972 136.219C34.4772 136.992 35.1306 137.926 35.5572 139.019C35.9972 140.112 36.2172 141.332 36.2172 142.679C36.2172 144.012 35.9839 145.232 35.5172 146.339C35.0506 147.446 34.3639 148.399 33.4572 149.199C32.5639 149.999 31.4506 150.626 30.1172 151.079C28.7972 151.519 27.2706 151.739 25.5372 151.739H20.9372V162.459H17.0772V133.799H25.5372ZM43.9035 142.199V162.459H40.3435V142.199H43.9035ZM44.6635 135.839C44.6635 136.186 44.5902 136.512 44.4435 136.819C44.3102 137.112 44.1235 137.379 43.8835 137.619C43.6568 137.846 43.3835 138.026 43.0635 138.159C42.7568 138.292 42.4302 138.359 42.0835 138.359C41.7368 138.359 41.4102 138.292 41.1035 138.159C40.8102 138.026 40.5502 137.846 40.3235 137.619C40.0968 137.379 39.9168 137.112 39.7835 136.819C39.6502 136.512 39.5835 136.186 39.5835 135.839C39.5835 135.492 39.6502 135.166 39.7835 134.859C39.9168 134.539 40.0968 134.266 40.3235 134.039C40.5502 133.799 40.8102 133.612 41.1035 133.479C41.4102 133.346 41.7368 133.279 42.0835 133.279C42.4302 133.279 42.7568 133.346 43.0635 133.479C43.3835 133.612 43.6568 133.799 43.8835 134.039C44.1235 134.266 44.3102 134.539 44.4435 134.859C44.5902 135.166 44.6635 135.492 44.6635 135.839ZM63.8529 145.799C63.7462 145.946 63.6395 146.059 63.5329 146.139C63.4262 146.219 63.2795 146.259 63.0929 146.259C62.8929 146.259 62.6729 146.179 62.4329 146.019C62.1929 145.846 61.8929 145.659 61.5329 145.459C61.1862 145.259 60.7529 145.079 60.2329 144.919C59.7262 144.746 59.0995 144.659 58.3529 144.659C57.3529 144.659 56.4729 144.839 55.7129 145.199C54.9529 145.546 54.3129 146.052 53.7929 146.719C53.2862 147.386 52.8995 148.192 52.6329 149.139C52.3795 150.086 52.2529 151.146 52.2529 152.319C52.2529 153.546 52.3929 154.639 52.6729 155.599C52.9529 156.546 53.3462 157.346 53.8529 157.999C54.3729 158.639 54.9929 159.132 55.7129 159.479C56.4462 159.812 57.2662 159.979 58.1729 159.979C59.0395 159.979 59.7529 159.879 60.3129 159.679C60.8729 159.466 61.3329 159.232 61.6929 158.979C62.0662 158.726 62.3729 158.499 62.6129 158.299C62.8662 158.086 63.1129 157.979 63.3529 157.979C63.6462 157.979 63.8729 158.092 64.0329 158.319L65.0329 159.619C64.5929 160.166 64.0929 160.632 63.5329 161.019C62.9729 161.406 62.3662 161.732 61.7129 161.999C61.0729 162.252 60.3995 162.439 59.6929 162.559C58.9862 162.679 58.2662 162.739 57.5329 162.739C56.2662 162.739 55.0862 162.506 53.9929 162.039C52.9129 161.572 51.9729 160.899 51.1729 160.019C50.3729 159.126 49.7462 158.032 49.2929 156.739C48.8395 155.446 48.6129 153.972 48.6129 152.319C48.6129 150.812 48.8195 149.419 49.2329 148.139C49.6595 146.859 50.2729 145.759 51.0729 144.839C51.8862 143.906 52.8795 143.179 54.0529 142.659C55.2395 142.139 56.5995 141.879 58.1329 141.879C59.5595 141.879 60.8129 142.112 61.8929 142.579C62.9862 143.032 63.9529 143.679 64.7929 144.519L63.8529 145.799ZM80.6544 145.539C80.4944 145.832 80.2478 145.979 79.9144 145.979C79.7144 145.979 79.4878 145.906 79.2344 145.759C78.9811 145.612 78.6678 145.452 78.2944 145.279C77.9344 145.092 77.5011 144.926 76.9944 144.779C76.4878 144.619 75.8878 144.539 75.1944 144.539C74.5944 144.539 74.0544 144.619 73.5744 144.779C73.0944 144.926 72.6811 145.132 72.3344 145.399C72.0011 145.666 71.7411 145.979 71.5544 146.339C71.3811 146.686 71.2944 147.066 71.2944 147.479C71.2944 147.999 71.4411 148.432 71.7344 148.779C72.0411 149.126 72.4411 149.426 72.9344 149.679C73.4278 149.932 73.9878 150.159 74.6144 150.359C75.2411 150.546 75.8811 150.752 76.5344 150.979C77.2011 151.192 77.8478 151.432 78.4744 151.699C79.1011 151.966 79.6611 152.299 80.1544 152.699C80.6478 153.099 81.0411 153.592 81.3344 154.179C81.6411 154.752 81.7944 155.446 81.7944 156.259C81.7944 157.192 81.6278 158.059 81.2944 158.859C80.9611 159.646 80.4678 160.332 79.8144 160.919C79.1611 161.492 78.3611 161.946 77.4144 162.279C76.4678 162.612 75.3744 162.779 74.1344 162.779C72.7211 162.779 71.4411 162.552 70.2944 162.099C69.1478 161.632 68.1744 161.039 67.3744 160.319L68.2144 158.959C68.3211 158.786 68.4478 158.652 68.5944 158.559C68.7411 158.466 68.9278 158.419 69.1544 158.419C69.3944 158.419 69.6478 158.512 69.9144 158.699C70.1811 158.886 70.5011 159.092 70.8744 159.319C71.2611 159.546 71.7278 159.752 72.2744 159.939C72.8211 160.126 73.5011 160.219 74.3144 160.219C75.0078 160.219 75.6144 160.132 76.1344 159.959C76.6544 159.772 77.0878 159.526 77.4344 159.219C77.7811 158.912 78.0344 158.559 78.1944 158.159C78.3678 157.759 78.4544 157.332 78.4544 156.879C78.4544 156.319 78.3011 155.859 77.9944 155.499C77.7011 155.126 77.3078 154.812 76.8144 154.559C76.3211 154.292 75.7544 154.066 75.1144 153.879C74.4878 153.679 73.8411 153.472 73.1744 153.259C72.5211 153.046 71.8744 152.806 71.2344 152.539C70.6078 152.259 70.0478 151.912 69.5544 151.499C69.0611 151.086 68.6611 150.579 68.3544 149.979C68.0611 149.366 67.9144 148.626 67.9144 147.759C67.9144 146.986 68.0744 146.246 68.3944 145.539C68.7144 144.819 69.1811 144.192 69.7944 143.659C70.4078 143.112 71.1611 142.679 72.0544 142.359C72.9478 142.039 73.9678 141.879 75.1144 141.879C76.4478 141.879 77.6411 142.092 78.6944 142.519C79.7611 142.932 80.6811 143.506 81.4544 144.239L80.6544 145.539ZM107.955 133.799L96.2754 162.459H92.7954L81.1154 133.799H84.2154C84.562 133.799 84.842 133.886 85.0554 134.059C85.2687 134.232 85.4287 134.452 85.5354 134.719L93.6154 154.939C93.7887 155.392 93.9554 155.886 94.1154 156.419C94.2887 156.952 94.442 157.512 94.5754 158.099C94.7087 157.512 94.8487 156.952 94.9954 156.419C95.142 155.886 95.302 155.392 95.4754 154.939L103.535 134.719C103.615 134.492 103.769 134.286 103.995 134.099C104.235 133.899 104.522 133.799 104.855 133.799H107.955ZM118.936 153.339C117.296 153.392 115.896 153.526 114.736 153.739C113.589 153.939 112.649 154.206 111.916 154.539C111.196 154.872 110.669 155.266 110.336 155.719C110.016 156.172 109.856 156.679 109.856 157.239C109.856 157.772 109.943 158.232 110.116 158.619C110.289 159.006 110.523 159.326 110.816 159.579C111.123 159.819 111.476 159.999 111.876 160.119C112.289 160.226 112.729 160.279 113.196 160.279C113.823 160.279 114.396 160.219 114.916 160.099C115.436 159.966 115.923 159.779 116.376 159.539C116.843 159.299 117.283 159.012 117.696 158.679C118.123 158.346 118.536 157.966 118.936 157.539V153.339ZM107.436 145.059C108.556 143.979 109.763 143.172 111.056 142.639C112.349 142.106 113.783 141.839 115.356 141.839C116.489 141.839 117.496 142.026 118.376 142.399C119.256 142.772 119.996 143.292 120.596 143.959C121.196 144.626 121.649 145.432 121.956 146.379C122.263 147.326 122.416 148.366 122.416 149.499V162.459H120.836C120.489 162.459 120.223 162.406 120.036 162.299C119.849 162.179 119.703 161.952 119.596 161.619L119.196 159.699C118.663 160.192 118.143 160.632 117.636 161.019C117.129 161.392 116.596 161.712 116.036 161.979C115.476 162.232 114.876 162.426 114.236 162.559C113.609 162.706 112.909 162.779 112.136 162.779C111.349 162.779 110.609 162.672 109.916 162.459C109.223 162.232 108.616 161.899 108.096 161.459C107.589 161.019 107.183 160.466 106.876 159.799C106.583 159.119 106.436 158.319 106.436 157.399C106.436 156.599 106.656 155.832 107.096 155.099C107.536 154.352 108.249 153.692 109.236 153.119C110.223 152.546 111.509 152.079 113.096 151.719C114.683 151.346 116.629 151.132 118.936 151.079V149.499C118.936 147.926 118.596 146.739 117.916 145.939C117.236 145.126 116.243 144.719 114.936 144.719C114.056 144.719 113.316 144.832 112.716 145.059C112.129 145.272 111.616 145.519 111.176 145.799C110.749 146.066 110.376 146.312 110.056 146.539C109.749 146.752 109.443 146.859 109.136 146.859C108.896 146.859 108.689 146.799 108.516 146.679C108.343 146.546 108.196 146.386 108.076 146.199L107.436 145.059ZM131.519 132.999V162.459H127.959V132.999H131.519ZM140.972 132.999V162.459H137.412V132.999H140.972ZM160.305 150.119C160.305 149.292 160.185 148.539 159.945 147.859C159.718 147.166 159.378 146.572 158.925 146.079C158.485 145.572 157.945 145.186 157.305 144.919C156.665 144.639 155.938 144.499 155.125 144.499C153.418 144.499 152.065 144.999 151.065 145.999C150.078 146.986 149.465 148.359 149.225 150.119H160.305ZM163.185 159.619C162.745 160.152 162.218 160.619 161.605 161.019C160.992 161.406 160.332 161.726 159.625 161.979C158.932 162.232 158.212 162.419 157.465 162.539C156.718 162.672 155.978 162.739 155.245 162.739C153.845 162.739 152.552 162.506 151.365 162.039C150.192 161.559 149.172 160.866 148.305 159.959C147.452 159.039 146.785 157.906 146.305 156.559C145.825 155.212 145.585 153.666 145.585 151.919C145.585 150.506 145.798 149.186 146.225 147.959C146.665 146.732 147.292 145.672 148.105 144.779C148.918 143.872 149.912 143.166 151.085 142.659C152.258 142.139 153.578 141.879 155.045 141.879C156.258 141.879 157.378 142.086 158.405 142.499C159.445 142.899 160.338 143.486 161.085 144.259C161.845 145.019 162.438 145.966 162.865 147.099C163.292 148.219 163.505 149.499 163.505 150.939C163.505 151.499 163.445 151.872 163.325 152.059C163.205 152.246 162.978 152.339 162.645 152.339H149.105C149.145 153.619 149.318 154.732 149.625 155.679C149.945 156.626 150.385 157.419 150.945 158.059C151.505 158.686 152.172 159.159 152.945 159.479C153.718 159.786 154.585 159.939 155.545 159.939C156.438 159.939 157.205 159.839 157.845 159.639C158.498 159.426 159.058 159.199 159.525 158.959C159.992 158.719 160.378 158.499 160.685 158.299C161.005 158.086 161.278 157.979 161.505 157.979C161.798 157.979 162.025 158.092 162.185 158.319L163.185 159.619ZM184.85 142.199L173.55 168.439C173.43 168.706 173.277 168.919 173.09 169.079C172.917 169.239 172.643 169.319 172.27 169.319H169.63L173.33 161.279L164.97 142.199H168.05C168.357 142.199 168.597 142.279 168.77 142.439C168.957 142.586 169.083 142.752 169.15 142.939L174.57 155.699C174.783 156.259 174.963 156.846 175.11 157.459C175.297 156.832 175.497 156.239 175.71 155.679L180.97 142.939C181.05 142.726 181.183 142.552 181.37 142.419C181.57 142.272 181.79 142.199 182.03 142.199H184.85Z" fill="#2D3339"/>
</svg>
